<svg width="30" height="27" viewBox="0 0 30 27" fill="none" xmlns="http://www.w3.org/2000/svg">
<path d="M20.6864 13.5L29.2151 5.82418C30.2616 4.88224 30.2616 3.35506 29.2151 2.41236L27.3196 0.706449C26.273 -0.235483 24.5761 -0.235483 23.5287 0.706449L15 8.38227L6.47131 0.706449C5.42472 -0.235483 3.72784 -0.235483 2.6804 0.706449L0.784943 2.41236C-0.261648 3.35429 -0.261648 4.88148 0.784943 5.82418L9.31364 13.5L0.784943 21.1758C-0.261648 22.1178 -0.261648 23.6449 0.784943 24.5876L2.6804 26.2936C3.72699 27.2355 5.42472 27.2355 6.47131 26.2936L15 18.6177L23.5287 26.2936C24.5753 27.2355 26.273 27.2355 27.3196 26.2936L29.2151 24.5876C30.2616 23.6457 30.2616 22.1185 29.2151 21.1758L20.6864 13.5Z" fill="#4F4F4F"/>
</svg>
