
<svg width="38" height="32" viewBox="0 0 38 32" fill="none" xmlns="http://www.w3.org/2000/svg">
<path d="M1.35714 5.87755H36.6429C37.3924 5.87755 38 5.29282 38 4.57143V1.30612C38 0.584735 37.3924 0 36.6429 0H1.35714C0.607576 0 0 0.584735 0 1.30612V4.57143C0 5.29282 0.607576 5.87755 1.35714 5.87755ZM1.35714 18.9388H36.6429C37.3924 18.9388 38 18.354 38 17.6327V14.3673C38 13.646 37.3924 13.0612 36.6429 13.0612H1.35714C0.607576 13.0612 0 13.646 0 14.3673V17.6327C0 18.354 0.607576 18.9388 1.35714 18.9388ZM1.35714 32H36.6429C37.3924 32 38 31.4153 38 30.6939V27.4286C38 26.7072 37.3924 26.1224 36.6429 26.1224H1.35714C0.607576 26.1224 0 26.7072 0 27.4286V30.6939C0 31.4153 0.607576 32 1.35714 32Z" fill="#5B5B5B"/>
</svg>
